<svg width="135" height="23" viewBox="0 0 135 23" fill="none" xmlns="http://www.w3.org/2000/svg">
<path d="M1.88086 12.959C2.43424 13.2715 2.99414 13.5547 3.56055 13.8086C4.13346 14.056 4.72591 14.2676 5.33789 14.4434C5.94987 14.6126 6.59115 14.7428 7.26172 14.834C7.9388 14.9251 8.6582 14.9707 9.41992 14.9707C10.3379 14.9707 11.1191 14.9121 11.7637 14.7949C12.4082 14.6712 12.9323 14.5052 13.3359 14.2969C13.7461 14.082 14.0423 13.8281 14.2246 13.5352C14.4134 13.2422 14.5078 12.9232 14.5078 12.5781C14.5078 12.0247 14.2767 11.5885 13.8145 11.2695C13.3522 10.944 12.6393 10.7812 11.6758 10.7812C11.2526 10.7812 10.8066 10.8105 10.3379 10.8691C9.86914 10.9212 9.39388 10.9798 8.91211 11.0449C8.43685 11.11 7.96484 11.1719 7.49609 11.2305C7.03385 11.2826 6.59766 11.3086 6.1875 11.3086C5.50391 11.3086 4.84635 11.2207 4.21484 11.0449C3.58984 10.8691 3.0332 10.6055 2.54492 10.2539C2.06315 9.90234 1.67904 9.46289 1.39258 8.93555C1.10612 8.4082 0.962891 7.79297 0.962891 7.08984C0.962891 6.67318 1.01823 6.25977 1.12891 5.84961C1.24609 5.43945 1.42839 5.04883 1.67578 4.67773C1.92969 4.30013 2.25521 3.95182 2.65234 3.63281C3.04948 3.30729 3.52799 3.02734 4.08789 2.79297C4.6543 2.55859 5.30534 2.3763 6.04102 2.24609C6.7832 2.10938 7.6263 2.04102 8.57031 2.04102C9.25391 2.04102 9.94076 2.08008 10.6309 2.1582C11.321 2.22982 11.9915 2.33398 12.6426 2.4707C13.3001 2.60742 13.9316 2.77344 14.5371 2.96875C15.1426 3.15755 15.7057 3.36914 16.2266 3.60352L14.8691 6.10352C14.4395 5.91471 13.9772 5.74219 13.4824 5.58594C12.9876 5.42318 12.4701 5.2832 11.9297 5.16602C11.3893 5.04883 10.8294 4.95768 10.25 4.89258C9.67708 4.82096 9.09115 4.78516 8.49219 4.78516C7.63932 4.78516 6.9362 4.84701 6.38281 4.9707C5.83594 5.0944 5.39974 5.25391 5.07422 5.44922C4.7487 5.63802 4.52083 5.85286 4.39062 6.09375C4.26693 6.32812 4.20508 6.5625 4.20508 6.79688C4.20508 7.2526 4.41016 7.62695 4.82031 7.91992C5.23047 8.20638 5.85547 8.34961 6.69531 8.34961C7.03385 8.34961 7.42122 8.32682 7.85742 8.28125C8.30013 8.22917 8.76237 8.17383 9.24414 8.11523C9.73242 8.05664 10.2272 8.00456 10.7285 7.95898C11.2363 7.9069 11.7279 7.88086 12.2031 7.88086C13.1016 7.88086 13.8958 7.98177 14.5859 8.18359C15.2826 8.38542 15.8652 8.67513 16.334 9.05273C16.8027 9.42383 17.1576 9.8763 17.3984 10.4102C17.6393 10.9375 17.7598 11.5299 17.7598 12.1875C17.7598 13.0664 17.5547 13.8509 17.1445 14.541C16.7409 15.2246 16.1615 15.804 15.4062 16.2793C14.6576 16.748 13.7526 17.1061 12.6914 17.3535C11.6302 17.5944 10.4486 17.7148 9.14648 17.7148C8.28711 17.7148 7.44727 17.6595 6.62695 17.5488C5.80664 17.4447 5.01888 17.2949 4.26367 17.0996C3.51497 16.8978 2.79883 16.6602 2.11523 16.3867C1.43815 16.1068 0.809896 15.8008 0.230469 15.4688L1.88086 12.959ZM20.2695 9.82422C20.2695 8.67188 20.4811 7.61719 20.9043 6.66016C21.3275 5.70312 21.9199 4.88281 22.6816 4.19922C23.4499 3.50911 24.3678 2.97526 25.4355 2.59766C26.5098 2.22005 27.6979 2.03125 29 2.03125C30.2956 2.03125 31.4805 2.22005 32.5547 2.59766C33.6289 2.97526 34.5469 3.50911 35.3086 4.19922C36.0768 4.88281 36.6725 5.70312 37.0957 6.66016C37.5189 7.61719 37.7305 8.67188 37.7305 9.82422C37.7305 10.9831 37.5189 12.0475 37.0957 13.0176C36.6725 13.9811 36.0768 14.8112 35.3086 15.5078C34.5469 16.2044 33.6289 16.748 32.5547 17.1387C31.4805 17.5228 30.2956 17.7148 29 17.7148C27.6979 17.7148 26.5098 17.5228 25.4355 17.1387C24.3678 16.748 23.4499 16.2044 22.6816 15.5078C21.9199 14.8112 21.3275 13.9811 20.9043 13.0176C20.4811 12.0475 20.2695 10.9831 20.2695 9.82422ZM23.3652 9.82422C23.3652 10.612 23.5052 11.3216 23.7852 11.9531C24.0716 12.5846 24.4655 13.125 24.9668 13.5742C25.4746 14.0169 26.0703 14.3587 26.7539 14.5996C27.444 14.8405 28.1927 14.9609 29 14.9609C29.8073 14.9609 30.5527 14.8405 31.2363 14.5996C31.9264 14.3587 32.5221 14.0169 33.0234 13.5742C33.5247 13.125 33.9186 12.5846 34.2051 11.9531C34.4915 11.3216 34.6348 10.612 34.6348 9.82422C34.6348 9.03646 34.4915 8.33008 34.2051 7.70508C33.9186 7.08008 33.5247 6.55273 33.0234 6.12305C32.5221 5.68685 31.9264 5.35482 31.2363 5.12695C30.5527 4.89909 29.8073 4.78516 29 4.78516C28.1927 4.78516 27.444 4.89909 26.7539 5.12695C26.0703 5.35482 25.4746 5.68685 24.9668 6.12305C24.4655 6.55273 24.0716 7.08008 23.7852 7.70508C23.5052 8.33008 23.3652 9.03646 23.3652 9.82422ZM47.7012 0.214844H50.2109V22.207H47.7012V0.214844ZM61.0996 2.23633H64.1953L69.7422 7.80273L75.2891 2.23633H78.3848V17.5H75.2891V6.52344L69.7422 11.8652L64.1953 6.52344V17.5H61.0996V2.23633ZM87.9355 2.23633H91.2168L98.5996 17.5H95.3477L94.127 14.9316H85.2109L84.0293 17.5H80.7676L87.9355 2.23633ZM92.9062 12.3828L89.6055 5.44922L86.3926 12.3828H92.9062ZM100.973 2.23633H104.068V10.1367L112.125 2.23633H116.09L108.57 9.52148L116.09 17.5H111.969L106.344 11.6797L104.068 13.877V17.5H100.973V2.23633ZM118.326 12.959C118.88 13.2715 119.439 13.5547 120.006 13.8086C120.579 14.056 121.171 14.2676 121.783 14.4434C122.395 14.6126 123.036 14.7428 123.707 14.834C124.384 14.9251 125.104 14.9707 125.865 14.9707C126.783 14.9707 127.564 14.9121 128.209 14.7949C128.854 14.6712 129.378 14.5052 129.781 14.2969C130.191 14.082 130.488 13.8281 130.67 13.5352C130.859 13.2422 130.953 12.9232 130.953 12.5781C130.953 12.0247 130.722 11.5885 130.26 11.2695C129.798 10.944 129.085 10.7812 128.121 10.7812C127.698 10.7812 127.252 10.8105 126.783 10.8691C126.314 10.9212 125.839 10.9798 125.357 11.0449C124.882 11.11 124.41 11.1719 123.941 11.2305C123.479 11.2826 123.043 11.3086 122.633 11.3086C121.949 11.3086 121.292 11.2207 120.66 11.0449C120.035 10.8691 119.479 10.6055 118.99 10.2539C118.508 9.90234 118.124 9.46289 117.838 8.93555C117.551 8.4082 117.408 7.79297 117.408 7.08984C117.408 6.67318 117.464 6.25977 117.574 5.84961C117.691 5.43945 117.874 5.04883 118.121 4.67773C118.375 4.30013 118.701 3.95182 119.098 3.63281C119.495 3.30729 119.973 3.02734 120.533 2.79297C121.1 2.55859 121.751 2.3763 122.486 2.24609C123.229 2.10938 124.072 2.04102 125.016 2.04102C125.699 2.04102 126.386 2.08008 127.076 2.1582C127.766 2.22982 128.437 2.33398 129.088 2.4707C129.745 2.60742 130.377 2.77344 130.982 2.96875C131.588 3.15755 132.151 3.36914 132.672 3.60352L131.314 6.10352C130.885 5.91471 130.423 5.74219 129.928 5.58594C129.433 5.42318 128.915 5.2832 128.375 5.16602C127.835 5.04883 127.275 4.95768 126.695 4.89258C126.122 4.82096 125.536 4.78516 124.938 4.78516C124.085 4.78516 123.382 4.84701 122.828 4.9707C122.281 5.0944 121.845 5.25391 121.52 5.44922C121.194 5.63802 120.966 5.85286 120.836 6.09375C120.712 6.32812 120.65 6.5625 120.65 6.79688C120.65 7.2526 120.855 7.62695 121.266 7.91992C121.676 8.20638 122.301 8.34961 123.141 8.34961C123.479 8.34961 123.867 8.32682 124.303 8.28125C124.745 8.22917 125.208 8.17383 125.689 8.11523C126.178 8.05664 126.673 8.00456 127.174 7.95898C127.682 7.9069 128.173 7.88086 128.648 7.88086C129.547 7.88086 130.341 7.98177 131.031 8.18359C131.728 8.38542 132.311 8.67513 132.779 9.05273C133.248 9.42383 133.603 9.8763 133.844 10.4102C134.085 10.9375 134.205 11.5299 134.205 12.1875C134.205 13.0664 134 13.8509 133.59 14.541C133.186 15.2246 132.607 15.804 131.852 16.2793C131.103 16.748 130.198 17.1061 129.137 17.3535C128.076 17.5944 126.894 17.7148 125.592 17.7148C124.732 17.7148 123.893 17.6595 123.072 17.5488C122.252 17.4447 121.464 17.2949 120.709 17.0996C119.96 16.8978 119.244 16.6602 118.561 16.3867C117.883 16.1068 117.255 15.8008 116.676 15.4688L118.326 12.959Z" fill="#010B13"/>
</svg>
