<svg width="120" height="120" viewBox="0 0 120 120" fill="none" xmlns="http://www.w3.org/2000/svg">
<rect width="120" height="120" fill="#F9F9FF"/>
<path d="M15.1094 64.7344C15.9948 65.2344 16.8906 65.6875 17.7969 66.0938C18.7135 66.4896 19.6615 66.8281 20.6406 67.1094C21.6198 67.3802 22.6458 67.5885 23.7188 67.7344C24.8021 67.8802 25.9531 67.9531 27.1719 67.9531C28.6406 67.9531 29.8906 67.8594 30.9219 67.6719C31.9531 67.474 32.7917 67.2083 33.4375 66.875C34.0938 66.5312 34.5677 66.125 34.8594 65.6562C35.1615 65.1875 35.3125 64.6771 35.3125 64.125C35.3125 63.2396 34.9427 62.5417 34.2031 62.0312C33.4635 61.5104 32.3229 61.25 30.7812 61.25C30.1042 61.25 29.3906 61.2969 28.6406 61.3906C27.8906 61.474 27.1302 61.5677 26.3594 61.6719C25.599 61.776 24.8438 61.875 24.0938 61.9688C23.3542 62.0521 22.6562 62.0938 22 62.0938C20.9062 62.0938 19.8542 61.9531 18.8438 61.6719C17.8438 61.3906 16.9531 60.9688 16.1719 60.4062C15.401 59.8438 14.7865 59.1406 14.3281 58.2969C13.8698 57.4531 13.6406 56.4688 13.6406 55.3438C13.6406 54.6771 13.7292 54.0156 13.9062 53.3594C14.0938 52.7031 14.3854 52.0781 14.7812 51.4844C15.1875 50.8802 15.7083 50.3229 16.3438 49.8125C16.9792 49.2917 17.7448 48.8438 18.6406 48.4688C19.5469 48.0938 20.5885 47.8021 21.7656 47.5938C22.9531 47.375 24.3021 47.2656 25.8125 47.2656C26.9062 47.2656 28.0052 47.3281 29.1094 47.4531C30.2135 47.5677 31.2865 47.7344 32.3281 47.9531C33.3802 48.1719 34.3906 48.4375 35.3594 48.75C36.3281 49.0521 37.2292 49.3906 38.0625 49.7656L35.8906 53.7656C35.2031 53.4635 34.4635 53.1875 33.6719 52.9375C32.8802 52.6771 32.0521 52.4531 31.1875 52.2656C30.3229 52.0781 29.4271 51.9323 28.5 51.8281C27.5833 51.7135 26.6458 51.6562 25.6875 51.6562C24.3229 51.6562 23.1979 51.7552 22.3125 51.9531C21.4375 52.151 20.7396 52.4062 20.2188 52.7188C19.6979 53.0208 19.3333 53.3646 19.125 53.75C18.9271 54.125 18.8281 54.5 18.8281 54.875C18.8281 55.6042 19.1562 56.2031 19.8125 56.6719C20.4688 57.1302 21.4688 57.3594 22.8125 57.3594C23.3542 57.3594 23.974 57.3229 24.6719 57.25C25.3802 57.1667 26.1198 57.0781 26.8906 56.9844C27.6719 56.8906 28.4635 56.8073 29.2656 56.7344C30.0781 56.651 30.8646 56.6094 31.625 56.6094C33.0625 56.6094 34.3333 56.7708 35.4375 57.0938C36.5521 57.4167 37.4844 57.8802 38.2344 58.4844C38.9844 59.0781 39.5521 59.8021 39.9375 60.6562C40.3229 61.5 40.5156 62.4479 40.5156 63.5C40.5156 64.9062 40.1875 66.1615 39.5312 67.2656C38.8854 68.3594 37.9583 69.2865 36.75 70.0469C35.5521 70.7969 34.1042 71.3698 32.4062 71.7656C30.7083 72.151 28.8177 72.3438 26.7344 72.3438C25.3594 72.3438 24.0156 72.2552 22.7031 72.0781C21.3906 71.9115 20.1302 71.6719 18.9219 71.3594C17.724 71.0365 16.5781 70.6562 15.4844 70.2188C14.401 69.7708 13.3958 69.2812 12.4688 68.75L15.1094 64.7344ZM56.4219 44.3438H60.4375V79.5312H56.4219V44.3438ZM77.8594 47.5781H82.8125L91.6875 56.4844L100.562 47.5781H105.516V72H100.562V54.4375L91.6875 62.9844L82.8125 54.4375V72H77.8594V47.5781Z" fill="black"/>
</svg>
